<?xml version="1.0" encoding="UTF-8" standalone="no"?>
<!DOCTYPE svg PUBLIC "-//W3C//DTD SVG 1.1//EN"
 "http://www.w3.org/Graphics/SVG/1.1/DTD/svg11.dtd">
<!-- Generated by graphviz version 2.38.0 (20140413.2041)
 -->
<!-- Generated by https://github.com/pmuellr/ns&#45;package&#45;graph on 2016/08/12 14:53:30 UTC -->
<!-- Title: packages Pages: 1 -->
<svg width="522pt" height="383pt"
 viewBox="0.00 0.00 522.08 382.54" xmlns="http://www.w3.org/2000/svg" xmlns:xlink="http://www.w3.org/1999/xlink">
<g id="graph0" class="graph" transform="scale(1 1) rotate(0) translate(4 378.537)">
<title>packages</title>
<polygon fill="white" stroke="none" points="-4,4 -4,-378.537 518.079,-378.537 518.079,4 -4,4"/>
<text text-anchor="middle" x="257.04" y="-8.2" font-family="Times,serif" font-size="14.00">generated by https://github.com/pmuellr/ns&#45;package&#45;graph on 2016/08/12 14:53:30 UTC</text>
<!-- pkg_0 -->
<g id="node1" class="node"><title>pkg_0</title>
<g id="a_node1"><a xlink:href="https://www.npmjs.com/package/sample_1" xlink:title="sample_1&#013;versions: 1.0.0&#013;paths:&#013;&#45; /Users/pmuellr/Projects/ns&#45;package&#45;graph/samples/sample_1">
<polygon fill="#f7fff7" stroke="#00ff00" stroke-width="2" points="321.394,-346.037 264.648,-374.411 207.901,-346.037 207.901,-289.291 264.648,-260.918 321.394,-289.291 321.394,-346.037"/>
<text text-anchor="middle" x="264.648" y="-321.864" font-family="Times,serif" font-size="14.00">sample_1</text>
<text text-anchor="middle" x="264.648" y="-305.064" font-family="Times,serif" font-size="14.00">1.0.0</text>
</a>
</g>
</g>
<!-- pkg_1 -->
<g id="node2" class="node"><title>pkg_1</title>
<g id="a_node2"><a xlink:href="https://www.npmjs.com/package/async" xlink:title="async&#013;versions: 2.0.1&#013;paths:&#013;&#45; /Users/pmuellr/Projects/ns&#45;package&#45;graph/samples/sample_1/node_modules/async">
<polygon fill="#f7fff7" stroke="#00ff00" stroke-width="2" points="270.825,-205.291 231.648,-224.88 192.47,-205.291 192.47,-166.113 231.648,-146.524 270.825,-166.113 270.825,-205.291"/>
<text text-anchor="middle" x="231.648" y="-189.902" font-family="Times,serif" font-size="14.00">async</text>
<text text-anchor="middle" x="231.648" y="-173.102" font-family="Times,serif" font-size="14.00">2.0.1</text>
</a>
</g>
</g>
<!-- pkg_0&#45;&gt;pkg_1 -->
<g id="edge1" class="edge"><title>pkg_0&#45;&gt;pkg_1</title>
<g id="a_edge1"><a xlink:title="sample_1 &#45;&gt; async">
<path fill="none" stroke="#7f7fff" stroke-width="2" d="M252.078,-267.16C249.035,-255.177 245.802,-242.447 242.828,-230.734"/>
<polygon fill="#7f7fff" stroke="#7f7fff" stroke-width="2" points="246.146,-229.578 240.292,-220.747 239.361,-231.301 246.146,-229.578"/>
</a>
</g>
</g>
<!-- pkg_2 -->
<g id="node3" class="node"><title>pkg_2</title>
<g id="a_node3"><a xlink:href="https://www.npmjs.com/package/lodash" xlink:title="lodash&#013;versions: 4.14.2&#013;paths:&#013;&#45; /Users/pmuellr/Projects/ns&#45;package&#45;graph/samples/sample_1/node_modules/lodash">
<polygon fill="#f7fff7" stroke="#00ff00" stroke-width="2" points="307.461,-89.1136 264.648,-110.52 221.834,-89.1136 221.834,-46.2999 264.648,-24.8931 307.461,-46.2999 307.461,-89.1136"/>
<text text-anchor="middle" x="264.648" y="-71.9067" font-family="Times,serif" font-size="14.00">lodash</text>
<text text-anchor="middle" x="264.648" y="-55.1067" font-family="Times,serif" font-size="14.00">4.14.2</text>
</a>
</g>
</g>
<!-- pkg_0&#45;&gt;pkg_2 -->
<g id="edge2" class="edge"><title>pkg_0&#45;&gt;pkg_2</title>
<g id="a_edge2"><a xlink:title="sample_1 &#45;&gt; lodash">
<path fill="none" stroke="#7f7fff" stroke-width="2" d="M274.454,-265.819C276.605,-252.519 278.563,-238.161 279.648,-224.791 282.456,-190.159 282.947,-181.202 279.648,-146.613 278.716,-136.844 277.14,-126.478 275.352,-116.604"/>
<polygon fill="#7f7fff" stroke="#7f7fff" stroke-width="2" points="278.744,-115.704 273.43,-106.538 271.868,-117.017 278.744,-115.704"/>
</a>
</g>
</g>
<!-- pkg_1&#45;&gt;pkg_2 -->
<g id="edge3" class="edge"><title>pkg_1&#45;&gt;pkg_2</title>
<g id="a_edge3"><a xlink:title="async &#45;&gt; lodash">
<path fill="none" stroke="#7f7fff" stroke-width="2" d="M241.193,-151.152C244.375,-139.965 247.98,-127.293 251.392,-115.299"/>
<polygon fill="#7f7fff" stroke="#7f7fff" stroke-width="2" points="254.83,-116.007 254.2,-105.431 248.097,-114.091 254.83,-116.007"/>
</a>
</g>
</g>
</g>
</svg>

